<svg xmlns="http://www.w3.org/2000/svg" xmlns:xlink="http://www.w3.org/1999/xlink" preserveAspectRatio="xMidYMid" width="52" height="27" viewBox="0 0 52 27">
  <defs>
    <style>
      .cls-1 {
        fill: #2a396a;
        fill-rule: evenodd;
      }
    </style>
  </defs>
  <g>
    <path d="M1.294,-0.000 L11.647,-0.000 C11.647,-0.000 22.000,12.408 22.000,12.857 C22.000,13.363 11.647,27.000 11.647,27.000 L-0.000,27.000 C-0.000,27.000 10.353,13.287 10.353,12.857 C10.353,12.386 1.294,-0.000 1.294,-0.000 Z" class="cls-1"/>
    <path d="M16.294,-0.000 L26.647,-0.000 C26.647,-0.000 37.000,12.408 37.000,12.857 C37.000,13.363 26.647,27.000 26.647,27.000 L15.000,27.000 C15.000,27.000 25.353,13.287 25.353,12.857 C25.353,12.386 16.294,-0.000 16.294,-0.000 Z" class="cls-1"/>
    <path d="M31.294,-0.000 L41.647,-0.000 C41.647,-0.000 52.000,12.408 52.000,12.857 C52.000,13.363 41.647,27.000 41.647,27.000 L30.000,27.000 C30.000,27.000 40.353,13.287 40.353,12.857 C40.353,12.386 31.294,-0.000 31.294,-0.000 Z" class="cls-1"/>
  </g>
</svg>
