<svg xmlns="http://www.w3.org/2000/svg" xmlns:xlink="http://www.w3.org/1999/xlink" preserveAspectRatio="xMidYMid" width="1920" height="900" viewBox="0 0 1920 900">
  <defs>
    <style>
      .cls-1 {
        fill: #2a396a;
      }

      .cls-2 {
        fill: #fff;
        opacity: 0.2;
        fill-rule: evenodd;
      }
    </style>
  </defs>
  <g>
    <rect width="1920" height="900" class="cls-1"/>
    <path d="M1877.588,-0.000 L1538.294,-0.000 C1538.294,-0.000 1199.000,413.627 1199.000,428.571 C1199.000,445.439 1538.294,900.000 1538.294,900.000 L1920.000,900.000 C1920.000,900.000 1580.706,442.901 1580.706,428.571 C1580.706,412.880 1877.588,-0.000 1877.588,-0.000 Z" class="cls-2"/>
    <path d="M2409.588,-0.000 L2070.294,-0.000 C2070.294,-0.000 1731.000,413.627 1731.000,428.571 C1731.000,445.439 2070.294,900.000 2070.294,900.000 L2452.000,900.000 C2452.000,900.000 2112.706,442.901 2112.706,428.571 C2112.706,412.880 2409.588,-0.000 2409.588,-0.000 Z" class="cls-2"/>
  </g>
</svg>
