<?xml version="1.0" encoding="iso-8859-1"?>
<!-- Generator: Adobe Illustrator 19.0.0, SVG Export Plug-In . SVG Version: 6.00 Build 0)  -->
<svg version="1.1" id="Layer_1" xmlns="http://www.w3.org/2000/svg" xmlns:xlink="http://www.w3.org/1999/xlink" x="0px" y="0px"
	 viewBox="0 0 124.792 104.161" style="enable-background:new 0 0 124.792 104.161;" xml:space="preserve">
<g>
	<polygon style="fill:#FFFFFF;" points="79.924,71.592 78.301,78.623 82.6,82.695 99.099,104.161 124.792,104.161 104.633,74.458 
		122.471,47.089 99.035,47.089 83.071,67.917 	"/>
	<path style="fill:#FFFFFF;" d="M82.587,63.123C81.146,45.661,68.433,32.795,51.22,32.795c-3.06,0-6.158,0.388-9.282,1.141
		c-3.137,0.746-6.299,1.881-9.513,3.398l0.025-15.562H76.25V0H3.647l0.115,60.113l26.611,0.013
		c3.825-8.836,13.719-9.021,18.144-5.776c4.182,3.086,5.317,9.002,5.648,14.14C54.841,82.72,35.039,90.658,27.3,72.38L0,72.354
		c2.971,10.137,4.833,17.482,13.605,24.068c3.417,2.575,7.574,4.514,12.445,5.814c4.858,1.275,10.723,1.925,17.545,1.925
		c9.512,0,15.632-1.613,21.727-4.871c6.107-3.258,10.749-9.518,12.84-13.535C80.636,81,83.008,71.755,82.587,63.123L82.587,63.123z"
		/>
</g>
</svg>
