<?xml version="1.0" encoding="iso-8859-1"?>
<!-- Generator: Adobe Illustrator 19.0.0, SVG Export Plug-In . SVG Version: 6.00 Build 0)  -->
<svg version="1.1" id="Layer_1" xmlns="http://www.w3.org/2000/svg" xmlns:xlink="http://www.w3.org/1999/xlink" x="0px" y="0px"
	 viewBox="0 0 667.323 104.161" style="enable-background:new 0 0 667.323 104.161;" xml:space="preserve">
<text transform="matrix(1 0 0 1 2039.0066 1172.6245)" style="font-family:'MyriadPro-Regular'; font-size:12px;">654321</text>
<g>
	<g>
		<polygon style="fill-rule:evenodd;clip-rule:evenodd;fill:#FFFFFF;" points="562.984,46.339 585.489,46.339 604.156,72.402 
			584.507,102.175 561.402,102.175 580.962,72.497 562.984,46.339 		"/>
		<polygon style="fill-rule:evenodd;clip-rule:evenodd;fill:#FFFFFF;" points="594.67,45.95 617.162,45.95 635.842,72.006 
			616.18,101.785 593.089,101.785 612.635,72.096 594.67,45.95 		"/>
		<polygon style="fill-rule:evenodd;clip-rule:evenodd;fill:#FFFFFF;" points="626.151,45.95 648.656,45.95 667.323,72.006 
			647.661,101.785 624.57,101.785 644.117,72.096 626.151,45.95 		"/>
		<polygon style="fill-rule:evenodd;clip-rule:evenodd;fill:#FFFFFF;" points="104.352,46.339 81.847,46.339 63.167,72.402 
			82.829,102.175 105.92,102.175 86.374,72.497 104.352,46.339 		"/>
		<polygon style="fill-rule:evenodd;clip-rule:evenodd;fill:#FFFFFF;" points="72.667,45.95 50.161,45.95 31.494,72.006 
			51.156,101.785 74.248,101.785 54.701,72.096 72.667,45.95 		"/>
		<polygon style="fill-rule:evenodd;clip-rule:evenodd;fill:#FFFFFF;" points="41.185,45.95 18.68,45.95 0,72.006 19.662,101.785 
			42.753,101.785 23.206,72.096 41.185,45.95 		"/>
	</g>
	<polygon style="fill:#FFFFFF;" points="298.418,104.027 319.955,46.84 342.345,46.84 363.549,104.161 341.363,104.161 
		329.696,67.636 318.157,104.027 298.418,104.027 	"/>
	<path style="fill:#FFFFFF;" d="M493.811,71.352c-0.114,20.962,12.828,32.935,33.662,32.808
		c23.844-0.147,32.476-12.311,32.208-31.775C559.145,33.017,494.041,32.609,493.811,71.352z M526.325,91.307
		c-10.825-0.452-10.456-20.216-7.255-29.798c0.791-2.41,4.45-4.495,7.23-4.444c3.137,0.057,6.452,1.18,7.344,4.055
		C537.865,74.999,535.583,91.696,526.325,91.307z"/>
	<path style="fill:#FFFFFF;" d="M485.982,65.463h-20.095c0.14-3.57,0.191-8.403-6.286-9.882
		c-12.879-1.453-13.287,36.544-0.421,35.371c6.044-0.842,6.172-5.018,6.643-11.297l20.235-0.051
		c1.058,8.562-2.537,14.128-6.656,17.896c-4.871,4.444-12.036,6.662-21.485,6.662c-9.13,0-16.104-2.174-20.988-6.547
		c-5.814-5.221-8.721-13.191-8.721-23.952c0-10.424,3.086-18.336,9.232-23.697c5.176-4.533,12.381-6.784,21.663-6.784
		c8.518,0,15.186,2.021,20.019,6.031C485.612,54.637,486.428,57.883,485.982,65.463L485.982,65.463z"/>
	<path style="fill:#FFFFFF;" d="M233.441,71.352c-0.14,20.962,12.815,32.929,33.637,32.808
		c23.857-0.153,32.488-12.305,32.221-31.768C298.763,33.017,233.657,32.603,233.441,71.352z M265.942,91.307
		c-10.825-0.459-10.468-20.216-7.267-29.798c0.816-2.41,4.462-4.488,7.242-4.444c3.137,0.051,6.452,1.186,7.332,4.061
		C277.469,75.006,275.199,91.69,265.942,91.307z"/>
	<polygon style="fill:#FFFFFF;" points="187.502,71.592 185.879,78.623 190.178,82.695 206.677,104.161 232.37,104.161 
		212.211,74.458 230.049,47.089 206.613,47.089 190.649,67.917 	"/>
	<path style="fill:#FFFFFF;" d="M190.165,63.123c-1.441-17.462-14.154-30.328-31.367-30.328c-3.06,0-6.158,0.388-9.282,1.141
		c-3.137,0.746-6.299,1.881-9.512,3.398l0.025-15.562h43.799V0h-72.603l0.115,60.113l26.611,0.013
		c3.825-8.836,13.719-9.021,18.144-5.776c4.182,3.086,5.317,9.002,5.648,14.14c0.676,14.23-19.126,22.167-26.866,3.889l-27.3-0.025
		c2.971,10.137,4.833,17.482,13.605,24.068c3.417,2.575,7.574,4.514,12.445,5.814c4.858,1.275,10.723,1.925,17.545,1.925
		c9.512,0,15.632-1.613,21.727-4.871c6.107-3.258,10.749-9.518,12.84-13.535C188.214,81,190.586,71.755,190.165,63.123
		L190.165,63.123z"/>
	<path style="fill:#FFFFFF;" d="M422.943,79.73h-37.628c0,7.67,0-0.835,0,0.37c0,12.649,13.554,15.919,18.451,5.885l18.195-0.012
		c1.173,14.733-18.464,18.189-27.478,18.189c-8.645,0-15.786-1.683-20.72-5.674c-6.337-5.125-9.13-13.477-9.13-23.142
		c0-10.245,2.805-16.423,7.803-23.181c6.962-9.39,30.704-11.048,40.369-3.239c5.534,4.482,8.39,10.705,9.652,18.782
		C422.764,69.683,422.892,75.42,422.943,79.73L422.943,79.73z M404.059,68.14c0.038-0.689,0.064-1.218,0.064-1.536
		c0-3.533-0.804-6.223-2.423-8.046c-1.594-1.842-3.927-2.767-6.949-2.767c-4.221,0-7.026,1.9-8.364,5.68
		c-0.548,1.575-0.855,3.794-0.931,6.669H404.059L404.059,68.14z"/>
	<path style="fill:#FFFFFF;" d="M192.205,29.805V0.619h9.793V22.92h7.013V0.619h9.818V22.92h6.988V0.619h9.805v29.186H192.205
		L192.205,29.805z M251.419,26.719v3.086h-9.805V0.619h9.805V12.33c0,1.556-0.102,3.411-0.293,5.56
		c1.199-2.334,2.397-4.405,3.596-6.216l5.189-7.937V0.619h9.818v29.186h-9.818V18.189c0-1.664,0.102-3.513,0.268-5.534
		c-0.956,1.97-2.155,4.029-3.583,6.197L251.419,26.719L251.419,26.719z M303.608,0.619v29.186h-10.086V18.444h-7.714v11.361h-10.099
		V0.619h10.099v10.736h7.714V0.619H303.608L303.608,0.619z M323.793,30.258c-4.629,0-8.403-1.371-11.323-4.087
		c-2.907-2.728-4.373-6.375-4.373-10.921c0-4.367,1.402-7.969,4.194-10.819c2.767-2.843,6.643-4.271,11.591-4.271
		c4.591,0,8.314,1.351,11.208,4.023c2.869,2.677,4.322,6.267,4.322,10.736c0,4.635-1.453,8.345-4.373,11.137
		C332.131,28.855,328.395,30.258,323.793,30.258L323.793,30.258z M323.742,23.621c1.695,0,2.919-0.657,3.672-1.983
		c0.764-1.314,1.122-3.723,1.122-7.224c0-5.081-1.53-7.612-4.603-7.612c-3.302,0-4.96,2.888-4.96,8.671
		C318.973,20.905,320.566,23.621,323.742,23.621L323.742,23.621z M379.679,0.619v29.186h-9.359V8.939l-6.12,20.867h-6.401
		L351.5,8.939v20.867h-7.574V0.619h13.172l4.781,15.498l4.552-15.498H379.679L379.679,0.619z M399.889,30.258
		c-4.629,0-8.403-1.371-11.323-4.087c-2.907-2.728-4.36-6.375-4.36-10.921c0-4.367,1.377-7.969,4.169-10.819
		c2.793-2.843,6.656-4.271,11.616-4.271c4.565,0,8.301,1.351,11.182,4.023c2.882,2.677,4.322,6.267,4.322,10.736
		c0,4.635-1.453,8.345-4.36,11.137C408.228,28.855,404.479,30.258,399.889,30.258L399.889,30.258z M399.825,23.621
		c1.709,0,2.933-0.657,3.672-1.983c0.765-1.314,1.135-3.723,1.135-7.224c0-5.081-1.53-7.612-4.603-7.612
		c-3.315,0-4.96,2.888-4.96,8.671C395.069,20.905,396.65,23.621,399.825,23.621L399.825,23.621z M447.921,0.619v29.186h-10.098
		V18.444h-7.715v11.361h-10.099V0.619h10.099v10.736h7.715V0.619H447.921L447.921,0.619z M467.392,7.606v22.199h-9.563V7.606h-6.809
		V0.619h23.194v6.987H467.392L467.392,7.606z M494.053,29.805l-1.861-5.751h-8.811l-1.977,5.751h-8.198l10.175-29.186h10.672
		l10.29,29.186H494.053L494.053,29.805z M485.089,17.679h5.343l-2.665-8.46L485.089,17.679L485.089,17.679z M541.486,13.312
		l11.973,16.493h-10.43l-8.964-12.145l-1.453,0.319v11.827h-8.836V17.979l-1.492-0.319l-8.926,12.145h-9.423l11.259-14.262
		L504.942,0.619h10.086l7.447,11.864l1.3,0.23V0.619h8.836v12.094l1.326-0.23l7.446-11.864h9.066L541.486,13.312L541.486,13.312z"/>
</g>
</svg>
