<svg xmlns="http://www.w3.org/2000/svg" xmlns:xlink="http://www.w3.org/1999/xlink" preserveAspectRatio="xMidYMid" width="14" height="14" viewBox="0 0 14 14">
  <defs>
    <style>
      .cls-1 {
        fill: #6e6e6e;
        fill-rule: evenodd;
      }
    </style>
  </defs>
  <path d="M13.684,11.078 L11.523,8.910 C11.092,8.480 10.379,8.493 9.934,8.940 L8.845,10.032 C8.776,9.994 8.705,9.954 8.630,9.912 C7.942,9.530 7.001,9.006 6.011,8.012 C5.017,7.016 4.495,6.071 4.112,5.381 C4.072,5.308 4.033,5.238 3.995,5.170 L4.726,4.439 L5.085,4.078 C5.532,3.631 5.544,2.916 5.114,2.485 L2.953,0.317 C2.523,-0.114 1.810,-0.101 1.364,0.347 L0.755,0.961 L0.772,0.978 C0.567,1.239 0.396,1.541 0.270,1.865 C0.153,2.175 0.079,2.470 0.046,2.766 C-0.239,5.139 0.842,7.307 3.776,10.250 C7.832,14.317 11.101,14.009 11.242,13.994 C11.549,13.958 11.843,13.884 12.143,13.768 C12.464,13.641 12.764,13.471 13.025,13.266 L13.038,13.278 L13.655,12.672 C14.101,12.225 14.113,11.510 13.684,11.078 Z" class="cls-1"/>
</svg>
