<?xml version="1.0" encoding="utf-8"?>
<!-- Generator: Adobe Illustrator 19.0.0, SVG Export Plug-In . SVG Version: 6.00 Build 0)  -->
<svg version="1.1" id="Слой_1" xmlns="http://www.w3.org/2000/svg" xmlns:xlink="http://www.w3.org/1999/xlink" x="0px" y="0px"
	 viewBox="0 0 496 496" style="enable-background:new 0 0 496 496;" xml:space="preserve">
<style type="text/css">
	.st0{fill:#FFFFFF;}
	.st1{fill:#E30514;}
</style>
<g>
	<path class="st0" d="M393.3,244.5l-15.5,4.1c4.1,15.5,6.2,31.4,6.2,47.4c0,101.5-82.5,184-184,184S16,397.5,16,296
		s82.5-184,184-184c16,0,31.9,2.1,47.4,6.2l4.1-15.5C234.7,98.3,217.4,96,200,96C89.7,96,0,185.7,0,296s89.7,200,200,200
		s200-89.7,200-200C400,278.6,397.7,261.3,393.3,244.5L393.3,244.5z M393.3,244.5"/>
	<path class="st0" d="M32,296c0,92.6,75.4,168,168,168s168-75.4,168-168c0-17.5-2.7-34.8-8.2-51.6l-15.2,4.9
		c4.1,12.6,6.4,25.6,7.1,38.7H336v16h15.6c-1.9,35.9-16.2,68.4-38.8,93.5l-11-11l-11.3,11.3l11,11c-25.1,22.6-57.6,36.9-93.5,38.8
		V432h-16v15.6c-35.9-1.9-68.4-16.2-93.5-38.8l11-11l-11.3-11.3l-11,11c-22.6-25.1-36.9-57.6-38.8-93.5H64v-16H48.4
		c1.9-35.9,16.2-68.4,38.8-93.5l11,11l11.3-11.3l-11-11c25.1-22.6,57.6-36.9,93.5-38.8V160h16v-15.7c13.1,0.7,26.1,3,38.7,7.1
		l4.9-15.2c-16.8-5.4-34.1-8.2-51.6-8.2C107.4,128,32,203.4,32,296L32,296z M32,296"/>
	<path class="st0" d="M192,176v97.5c-9.3,3.3-16,12.1-16,22.5c0,13.2,10.8,24,24,24c3.7,0,7.2-0.9,10.3-2.4l56.1,56.1l11.3-11.3
		l-56.1-56.1c1.5-3.1,2.4-6.6,2.4-10.3c0-10.4-6.7-19.2-16-22.5V176H192z M192,296c0-4.4,3.6-8,8-8s8,3.6,8,8s-3.6,8-8,8
		S192,300.4,192,296L192,296z M192,296"/>
	<path class="st0" d="M464,296c0-13.2-10.8-24-24-24c-13.2,0-24,10.8-24,24c0,10,6.2,18.6,14.9,22.2c-5,52.7-28,102.2-65.2,140.2
		l11.4,11.2c40-40.8,64.6-94.1,69.8-150.7C456.8,315.9,464,306.8,464,296L464,296z M440,304c-4.4,0-8-3.6-8-8s3.6-8,8-8s8,3.6,8,8
		S444.4,304,440,304L440,304z M440,304"/>
	<path class="st0" d="M42.3,125.9C79.5,91.3,127.5,70,177.9,65.2C181.5,73.9,190,80,200,80c13.2,0,24-10.8,24-24
		c0-13.2-10.8-24-24-24c-10.8,0-19.9,7.2-22.9,17.1c-54.2,5-105.7,27.9-145.7,65L42.3,125.9z M200,48c4.4,0,8,3.6,8,8
		c0,4.4-3.6,8-8,8s-8-3.6-8-8C192,51.6,195.6,48,200,48L200,48z M200,48"/>
	<path class="st1" d="M368,256c-70.6,0-128-57.4-128-128S297.4,0,368,0s128,57.4,128,128S438.6,256,368,256L368,256z M368,256"/>
	<path class="st0" d="M360,184h-72v-19l51-58.3c3.2-3.6,5-8.3,5-13.2V92c0-11-9-20-20-20s-20,9-20,20v12h-16V92
		c0-19.8,16.2-36,36-36c19.8,0,36,16.2,36,36v1.5c0,8.7-3.2,17.2-8.9,23.7L306.6,168H360V184z M360,184"/>
	<path class="st0" d="M440,184h-16v-24h-48v-17.9L419.1,56H440v88h16v16h-16V184z M392.9,144H424V81.9L392.9,144z M392.9,144"/>
</g>
</svg>
