<?xml version="1.0" encoding="utf-8"?>
<!-- Generator: Adobe Illustrator 19.0.0, SVG Export Plug-In . SVG Version: 6.00 Build 0)  -->
<svg version="1.1" id="Слой_1" xmlns="http://www.w3.org/2000/svg" xmlns:xlink="http://www.w3.org/1999/xlink" x="0px" y="0px"
	 viewBox="0 0 496 496" style="enable-background:new 0 0 496 496;" xml:space="preserve">
<style type="text/css">
	.st0{fill:#FFFFFF;}
	.st1{fill:#E30514;}
</style>
<g>
	<path class="st0" d="M368,0H128c-22.1,0-40,17.9-40,40v208h16V64h288v24h16V40C408,17.9,390.1,0,368,0L368,0z M104,48v-8
		c0-13.2,10.8-24,24-24h240c13.2,0,24,10.8,24,24v8H104z M104,48"/>
	<path class="st0" d="M392,224v192H104v-24H88v64c0,22.1,17.9,40,40,40h240c22.1,0,40-17.9,40-40V224H392z M368,480H128
		c-13.2,0-24-10.8-24-24v-24h288v24C392,469.2,381.2,480,368,480L368,480z M368,480"/>
	<rect x="216" y="448" class="st0" width="64" height="16"/>
	<path class="st1" d="M496,288l-74.3-48H280c-22.1,0-40-17.9-40-40v-80c0-22.1,17.9-40,40-40h176c22.1,0,40,17.9,40,40V288z
		 M496,288"/>
	<path class="st1" d="M0,448V280c0-22.1,17.9-40,40-40h176c22.1,0,40,17.9,40,40v80c0,22.1-17.9,40-40,40H74.3L0,448z M0,448"/>
	<path class="st0" d="M368,184c-13.2,0-24-10.8-24-24c0-13.2,10.8-24,24-24s24,10.8,24,24C392,173.2,381.2,184,368,184L368,184z
		 M368,152c-4.4,0-8,3.6-8,8c0,4.4,3.6,8,8,8s8-3.6,8-8C376,155.6,372.4,152,368,152L368,152z M368,152"/>
	<path class="st0" d="M432,184c-13.2,0-24-10.8-24-24c0-13.2,10.8-24,24-24c13.2,0,24,10.8,24,24C456,173.2,445.2,184,432,184
		L432,184z M432,152c-4.4,0-8,3.6-8,8c0,4.4,3.6,8,8,8c4.4,0,8-3.6,8-8C440,155.6,436.4,152,432,152L432,152z M432,152"/>
	<path class="st0" d="M304,184c-13.2,0-24-10.8-24-24c0-13.2,10.8-24,24-24c13.2,0,24,10.8,24,24C328,173.2,317.2,184,304,184
		L304,184z M304,152c-4.4,0-8,3.6-8,8c0,4.4,3.6,8,8,8c4.4,0,8-3.6,8-8C312,155.6,308.4,152,304,152L304,152z M304,152"/>
	<path class="st0" d="M176,321.5V320c0-26.5-21.5-48-48-48s-48,21.5-48,48v1.5c-9.3,3.3-16,12.1-16,22.5c0,13.2,10.8,24,24,24h24
		v-48H96c0-17.6,14.4-32,32-32s32,14.4,32,32h-16v48h24c13.2,0,24-10.8,24-24C192,333.6,185.3,324.8,176,321.5L176,321.5z M96,352
		h-8c-4.4,0-8-3.6-8-8s3.6-8,8-8h8V352z M168,352h-8v-16h8c4.4,0,8,3.6,8,8S172.4,352,168,352L168,352z M168,352"/>
	<rect x="272" y="312" class="st0" width="16" height="16"/>
	<rect x="304" y="312" class="st0" width="16" height="16"/>
	<rect x="336" y="312" class="st0" width="16" height="16"/>
	<rect x="144" y="152" class="st0" width="16" height="16"/>
	<rect x="176" y="152" class="st0" width="16" height="16"/>
	<rect x="208" y="152" class="st0" width="16" height="16"/>
</g>
</svg>
