<svg xmlns="http://www.w3.org/2000/svg" xmlns:xlink="http://www.w3.org/1999/xlink" preserveAspectRatio="xMidYMid" width="10" height="14.031" viewBox="0 0 10 14.031">
  <defs>
    <style>
      .cls-1 {
        fill: #e30514;
        fill-rule: evenodd;
      }
    </style>
  </defs>
  <path d="M5.000,-0.000 C2.243,-0.000 0.000,2.274 0.000,5.070 C0.000,8.540 4.474,13.633 4.665,13.848 C4.844,14.050 5.156,14.050 5.335,13.848 C5.525,13.633 10.000,8.540 10.000,5.070 C10.000,2.274 7.757,-0.000 5.000,-0.000 ZM5.000,7.621 C3.613,7.621 2.484,6.476 2.484,5.070 C2.484,3.663 3.613,2.519 5.000,2.519 C6.387,2.519 7.515,3.663 7.515,5.070 C7.515,6.477 6.387,7.621 5.000,7.621 Z" class="cls-1"/>
</svg>
