<?xml version="1.0" encoding="utf-8"?>
<!-- Generator: Adobe Illustrator 19.0.0, SVG Export Plug-In . SVG Version: 6.00 Build 0)  -->
<svg version="1.1" id="Слой_1" xmlns="http://www.w3.org/2000/svg" xmlns:xlink="http://www.w3.org/1999/xlink" x="0px" y="0px"
	 viewBox="0 0 496 496" style="enable-background:new 0 0 496 496;" xml:space="preserve">
<style type="text/css">
	.st0{fill:#FFFFFF;}
	.st1{fill:#E30514;}
</style>
<g>
	<path class="st0" d="M456,304H338.3v16H352v48h-64.3v16H368v-64h32v64h80v32h-48v64h-32v-64H264v64h-32v-64h-88v64h-32v-64H16v-32
		h48v-64h32v64h112.3v-16H112v-48h45.7v-16H40c-22.1,0-40,17.9-40,40v112c0,22.1,17.9,40,40,40h416c22.1,0,40-17.9,40-40V344
		C496,321.9,478.1,304,456,304L456,304z M416,368v-48h40c13.2,0,24,10.8,24,24v24H416z M280,432h104v48H280V432z M160,432h56v48h-56
		V432z M40,320h8v48H16v-24C16,330.8,26.8,320,40,320L40,320z M16,456v-24h80v48H40C26.8,480,16,469.2,16,456L16,456z M456,480h-8
		v-48h32v24C480,469.2,469.2,480,456,480L456,480z M456,480"/>
	<path class="st1" d="M248,0C155.4,0,80,75.4,80,168v0.3c0,37.7,12.9,74.7,36.3,104.3l112.5,142.1c4.7,5.9,11.7,9.3,19.2,9.3
		c7.5,0,14.5-3.4,19.2-9.3l112.5-142.1C403.1,243.1,416,206,416,168C416,75.4,340.6,0,248,0L248,0z M248,0"/>
	<path class="st0" d="M248,288c-66.2,0-120-53.8-120-120S181.8,48,248,48s120,53.8,120,120S314.2,288,248,288L248,288z M248,64
		c-57.3,0-104,46.7-104,104s46.7,104,104,104c57.3,0,104-46.7,104-104S305.3,64,248,64L248,64z M248,64"/>
	<rect x="464" y="160" class="st0" width="16" height="16"/>
	<rect x="432" y="160" class="st0" width="16" height="16"/>
	<rect x="48" y="160" class="st0" width="16" height="16"/>
	<rect x="16" y="160" class="st0" width="16" height="16"/>
</g>
</svg>
