<?xml version="1.0" encoding="utf-8"?>
<!-- Generator: Adobe Illustrator 19.0.0, SVG Export Plug-In . SVG Version: 6.00 Build 0)  -->
<svg version="1.1" id="Слой_1" xmlns="http://www.w3.org/2000/svg" xmlns:xlink="http://www.w3.org/1999/xlink" x="0px" y="0px"
	 viewBox="0 0 495.3 496" style="enable-background:new 0 0 495.3 496;" xml:space="preserve">
<style type="text/css">
	.st0{fill:#E30514;}
	.st1{fill:#FFFFFF;}
</style>
<g>
	<path class="st0" d="M87.9,32v55.9H32v55.9h287.6V32H87.9z M87.9,32"/>
	<path class="st0" d="M375.5,423.4c-30.8,0-55.9-25.1-55.9-55.9c0-30.8,25.1-55.9,55.9-55.9c30.8,0,55.9,25.1,55.9,55.9
		C431.4,398.3,406.3,423.4,375.5,423.4L375.5,423.4z M375.5,423.4"/>
	<rect x="32" y="287.6" class="st0" width="207.7" height="143.8"/>
	<path class="st1" d="M487.3,271.6c-30.8,0-55.9-25.1-55.9-55.9v-8h-79.9V0H84.6L0,84.6v378.8h322.3c14.7,12.7,31.5,23.4,50,31.3
		l3.1,1.4l3.1-1.4c70.9-30.4,116.7-99.8,116.7-176.9v-46.1H487.3z M79.9,27.3v52.6H27.3L79.9,27.3z M16,95.9h79.9V16h239.7v191.7
		h-16v8c0,30.8-25.1,55.9-55.9,55.9h-8v46.1c0,49,18.6,94.9,50.3,129.7H16V95.9z M479.3,317.7c0,69.6-40.6,132.3-103.9,160.9
		c-63.2-28.5-103.9-91.3-103.9-160.9v-30.6c33.3-3.7,59.8-30.2,63.5-63.5h80.8c3.7,33.3,30.2,59.8,63.5,63.5L479.3,317.7
		L479.3,317.7z M479.3,317.7"/>
	<path class="st1" d="M371.9,371.5l-16-10.6l-8.9,13.3l32,21.3l51.7-120.7l-14.7-6.3L371.9,371.5z M371.9,371.5"/>
	<rect x="63.9" y="159.8" class="st1" width="175.7" height="16"/>
	<rect x="32" y="159.8" class="st1" width="16" height="16"/>
	<rect x="32" y="191.7" class="st1" width="207.7" height="16"/>
	<rect x="32" y="223.7" class="st1" width="207.7" height="16"/>
	<rect x="32" y="255.6" class="st1" width="207.7" height="16"/>
</g>
</svg>
